<?xml version="1.0" encoding="utf-8"?>
<!-- Generator: Adobe Illustrator 21.0.0, SVG Export Plug-In . SVG Version: 6.00 Build 0)  -->
<svg version="1.1" id="Layer_1" xmlns="http://www.w3.org/2000/svg" xmlns:xlink="http://www.w3.org/1999/xlink" x="0px" y="0px"
	 viewBox="0 0 161 50" style="enable-background:new 0 0 161 50;" xml:space="preserve">
<style type="text/css">
	.st0{fill:#F9F9F9;}
	.st1{fill:#E5E5E5;}
</style>
<g>
	<path class="st0" d="M75.4,32.4c-1-0.6-1.9-1.3-2.6-2.1c-0.3-0.3-0.8-0.3-1,0c-0.3,0.4-0.7,0.8-1.1,1.3c-0.6,0.6-1.2,1.1-1.7,1.4
		c-0.3,0.2-0.6,0.1-0.8-0.1c-0.2-0.2-0.3-0.3-0.5-0.5c-0.3-0.3-0.2-0.8,0.1-1c0.8-0.4,1.5-1,2.1-1.8c0.8-1,1.2-2,1.2-3v-1h-2.8
		c-0.4,0-0.7-0.3-0.7-0.7v-0.5c0-0.4,0.3-0.7,0.7-0.7h7.6c0.4,0,0.7,0.3,0.7,0.7V25c0,0.4-0.3,0.7-0.7,0.7h-2.7v0.9
		c0,1,0.4,1.9,1.1,2.7c0.6,0.6,1.3,1.1,2.1,1.5c0.4,0.2,0.5,0.7,0.2,1l-0.4,0.5C76,32.5,75.7,32.6,75.4,32.4z M70.4,38.3V34
		c0-0.4,0.3-0.7,0.7-0.7h0.9c0.4,0,0.7,0.3,0.7,0.7v2.4c0,0.4,0.3,0.7,0.7,0.7h7.5c0.4,0,0.7,0.3,0.7,0.7v0.5c0,0.4-0.3,0.7-0.7,0.7
		h-9.7C70.7,38.9,70.4,38.6,70.4,38.3z M79.2,34.1v-4.6c0-0.4-0.3-0.7-0.7-0.7h-1.9c-0.4,0-0.7-0.3-0.7-0.7v-0.4
		c0-0.4,0.3-0.7,0.7-0.7h1.9c0.4,0,0.7-0.3,0.7-0.7v-2.9c0-0.4,0.3-0.7,0.7-0.7h0.8c0.4,0,0.7,0.3,0.7,0.7v10.5
		c0,0.4-0.3,0.7-0.7,0.7h-0.8C79.5,34.8,79.2,34.5,79.2,34.1z"/>
	<path class="st0" d="M95.6,38.8v-2.5c0-0.4-0.3-0.7-0.7-0.7h-7.6c-0.4,0-0.7-0.3-0.7-0.7v-0.5c0-0.4,0.3-0.7,0.7-0.7H91
		c0.2,0,0.3-0.1,0.3-0.3v-0.8c0-0.2-0.1-0.3-0.3-0.3h-5.7c-0.4,0-0.7-0.3-0.7-0.7v-0.5c0-0.4,0.3-0.7,0.7-0.7h14.1
		c0.4,0,0.7,0.3,0.7,0.7v0.5c0,0.4-0.3,0.7-0.7,0.7h-5.7c-0.2,0-0.3,0.1-0.3,0.3v0.8c0,0.2,0.1,0.3,0.3,0.3h3.4
		c0.4,0,0.7,0.3,0.7,0.7v4.4c0,0.4-0.3,0.7-0.7,0.7h-0.9C95.9,39.5,95.6,39.2,95.6,38.8z M87,28.8v-5c0-0.4,0.3-0.7,0.7-0.7h0.8
		c0.4,0,0.7,0.3,0.7,0.7v0.4c0,0.2,0.2,0.4,0.4,0.4h5.6c0.2,0,0.4-0.2,0.4-0.4v-0.4c0-0.4,0.3-0.7,0.7-0.7h0.8
		c0.4,0,0.7,0.3,0.7,0.7v5c0,0.4-0.3,0.7-0.7,0.7h-9.4C87.3,29.4,87,29.1,87,28.8z M95.6,26.4h-6.4v1.2h6.4V26.4z"/>
</g>
<g>
	<path class="st1" d="M125.9,13.9c0,0.7-0.1,1.4-0.2,1.9s-0.4,1.1-0.8,1.5c-0.3,0.4-0.8,0.7-1.3,0.9c-0.5,0.2-1.1,0.3-1.8,0.3
		c-0.7,0-1.3-0.1-1.8-0.2c-0.5-0.2-0.9-0.4-1.3-0.8c-0.3-0.4-0.6-0.8-0.8-1.4c-0.2-0.6-0.3-1.2-0.3-2c0-0.7,0.1-1.3,0.2-1.9
		c0.2-0.6,0.4-1,0.8-1.4c0.3-0.4,0.8-0.7,1.3-0.9c0.5-0.2,1.1-0.3,1.8-0.3c0.7,0,1.2,0.1,1.7,0.2c0.5,0.2,0.9,0.4,1.3,0.8
		c0.3,0.4,0.6,0.8,0.8,1.4C125.8,12.5,125.8,13.1,125.9,13.9z M124,14c0-0.5,0-0.9-0.1-1.2c-0.1-0.4-0.2-0.7-0.4-1
		c-0.2-0.3-0.4-0.5-0.7-0.6c-0.3-0.1-0.6-0.2-1.1-0.2c-0.4,0-0.8,0.1-1.1,0.3c-0.3,0.2-0.5,0.4-0.7,0.7c-0.2,0.3-0.3,0.6-0.4,1
		c-0.1,0.4-0.1,0.8-0.1,1.2c0,0.5,0,0.9,0.1,1.3c0.1,0.4,0.2,0.7,0.4,1c0.2,0.3,0.4,0.5,0.7,0.6c0.3,0.1,0.7,0.2,1.1,0.2
		c0.4,0,0.8-0.1,1.1-0.3c0.3-0.2,0.5-0.4,0.7-0.7s0.3-0.6,0.4-1C124,14.8,124,14.4,124,14z"/>
	<path class="st1" d="M133,18c0,0,0,0.1,0,0.1c0,0-0.1,0.1-0.1,0.1c-0.1,0-0.1,0-0.3,0.1c-0.1,0-0.2,0-0.4,0c-0.2,0-0.3,0-0.4,0
		c-0.1,0-0.2,0-0.3,0c-0.1,0-0.1,0-0.1-0.1c0,0,0-0.1,0-0.1l0-3.4c0-0.3,0-0.5-0.1-0.7c0-0.2-0.1-0.3-0.2-0.4
		c-0.1-0.1-0.2-0.2-0.3-0.3c-0.1-0.1-0.3-0.1-0.4-0.1c-0.2,0-0.4,0.1-0.6,0.2c-0.2,0.2-0.4,0.4-0.7,0.7c0,0,0,0,0,0.1l0,4
		c0,0,0,0.1,0,0.1c0,0-0.1,0.1-0.1,0.1c-0.1,0-0.2,0-0.3,0.1c-0.1,0-0.2,0-0.4,0c-0.2,0-0.3,0-0.4,0c-0.1,0-0.2,0-0.3,0
		c-0.1,0-0.1,0-0.1-0.1c0,0,0-0.1,0-0.1l-0.1-6c0,0,0-0.1,0-0.1c0,0,0.1-0.1,0.1-0.1c0.1,0,0.1,0,0.2-0.1c0.1,0,0.2,0,0.3,0
		c0.1,0,0.3,0,0.4,0c0.1,0,0.2,0,0.2,0c0.1,0,0.1,0,0.1,0.1c0,0,0,0.1,0,0.1l0,0.4c0,0.1,0.1,0.1,0.2,0.1c0.3-0.3,0.5-0.5,0.8-0.6
		c0.3-0.2,0.7-0.3,1.1-0.3c0.4,0,0.8,0.1,1,0.2c0.3,0.1,0.5,0.3,0.7,0.5c0.2,0.2,0.3,0.5,0.4,0.8c0.1,0.3,0.1,0.7,0.1,1.1L133,18z"
		/>
	<path class="st1" d="M137.3,17.3c0,0.2,0,0.3,0,0.5c0,0.1-0.1,0.2-0.2,0.3c-0.1,0.1-0.2,0.1-0.3,0.2c-0.1,0-0.3,0.1-0.5,0.1
		c-0.2,0-0.3,0-0.5,0c-0.1,0-0.2-0.1-0.3-0.2c-0.1-0.1-0.1-0.2-0.2-0.3c0-0.1,0-0.3,0-0.5c0-0.2,0-0.3,0-0.5c0-0.1,0.1-0.2,0.1-0.3
		c0.1-0.1,0.2-0.1,0.3-0.2c0.1,0,0.3-0.1,0.5-0.1c0.2,0,0.3,0,0.5,0c0.1,0,0.2,0.1,0.3,0.2c0.1,0.1,0.1,0.2,0.2,0.3
		C137.3,17,137.3,17.1,137.3,17.3z M137,15.4c0,0,0,0.1,0,0.1c0,0-0.1,0.1-0.1,0.1c-0.1,0-0.1,0-0.2,0.1c-0.1,0-0.2,0-0.4,0
		c-0.1,0-0.3,0-0.4,0c-0.1,0-0.2,0-0.2-0.1c-0.1,0-0.1-0.1-0.1-0.1c0,0,0-0.1,0-0.1l-0.3-6.1c0-0.1,0-0.1,0-0.2c0,0,0.1-0.1,0.1-0.1
		c0.1,0,0.2-0.1,0.3-0.1c0.1,0,0.3,0,0.4,0c0.2,0,0.3,0,0.4,0c0.1,0,0.2,0,0.3,0.1c0.1,0,0.1,0.1,0.1,0.1s0,0.1,0,0.2L137,15.4z"/>
</g>
<g>
	<path class="st0" d="M115.9,38.8V36c0-0.2-0.2-0.3-0.3-0.3h-7.9c-0.4,0-0.7-0.3-0.7-0.7v-0.5c0-0.4,0.3-0.7,0.7-0.7h3.6
		c0.1,0,0.3-0.1,0.3-0.3v-1c0-0.1-0.1-0.3-0.3-0.3h-5.7c-0.4,0-0.7-0.3-0.7-0.7v-0.5c0-0.4,0.3-0.7,0.7-0.7h14.1
		c0.4,0,0.7,0.3,0.7,0.7v0.5c0,0.4-0.3,0.7-0.7,0.7H114c-0.1,0-0.3,0.1-0.3,0.3v1c0,0.1,0.1,0.3,0.3,0.3h3.4c0.4,0,0.7,0.3,0.7,0.7
		v4.4c0,0.4-0.3,0.7-0.7,0.7h-0.9C116.2,39.5,115.9,39.2,115.9,38.8z M119,29.4c-0.1,0.2-0.4,0.3-0.6,0.3c-1-0.1-2-0.4-3.1-0.8
		c-0.9-0.4-1.7-0.8-2.2-1.2c-0.2-0.2-0.5-0.2-0.8,0c-0.5,0.4-1.3,0.8-2.2,1.2c-1.1,0.4-2.1,0.7-3.2,0.8c-0.2,0-0.5-0.1-0.6-0.3
		L106,29c-0.3-0.4,0-1,0.5-1c0.9-0.1,1.7-0.3,2.5-0.5c1.1-0.4,1.9-0.9,2.3-1.5h-4c-0.4,0-0.7-0.3-0.7-0.7v-0.5
		c0-0.4,0.3-0.7,0.7-0.7h3.6c0.4,0,0.7-0.3,0.7-0.7v-0.2c0-0.4,0.3-0.7,0.7-0.7h0.9c0.4,0,0.7,0.3,0.7,0.7v0.2
		c0,0.4,0.3,0.7,0.7,0.7h3.6c0.4,0,0.7,0.3,0.7,0.7v0.5c0,0.4-0.3,0.7-0.7,0.7h-4c0.4,0.6,1.2,1.1,2.3,1.5c0.8,0.3,1.6,0.4,2.4,0.5
		c0.5,0,0.7,0.6,0.5,1L119,29.4z"/>
	<path class="st0" d="M129.9,34.9c-0.2,0.2-0.6,0.3-0.9,0c-0.3-0.3-0.7-0.7-1.1-1.2c-0.4-0.5-0.8-1-1-1.4c-0.1-0.1-0.3-0.1-0.3,0
		c-0.3,0.5-0.6,1.1-1.1,1.7c-0.4,0.6-0.9,1-1.3,1.4c-0.2,0.2-0.6,0.2-0.9,0c-0.2-0.1-0.4-0.3-0.5-0.5c-0.3-0.3-0.3-0.7,0-1
		c0.8-0.7,1.5-1.5,2-2.4c0.6-1.1,0.9-2.4,0.9-3.7v-1.2c0-0.4-0.3-0.7-0.7-0.7h-1.5c-0.4,0-0.7-0.3-0.7-0.7V25c0-0.4,0.3-0.7,0.7-0.7
		h6.2c0.4,0,0.7,0.3,0.7,0.7v0.5c0,0.4-0.3,0.7-0.7,0.7h-1.2c-0.4,0-0.7,0.3-0.7,0.7l0,1.2c0,1.1,0.2,2.3,0.8,3.3
		c0.5,0.8,1.1,1.6,1.8,2.2c0.3,0.2,0.3,0.7,0,1L129.9,34.9z M131.5,38.3v-7.6c0-0.4-0.3-0.7-0.7-0.7h-1c-0.4,0-0.7-0.3-0.7-0.7V29
		c0-0.4,0.3-0.7,0.7-0.7h1c0.4,0,0.7-0.3,0.7-0.7v-3.8c0-0.4,0.3-0.7,0.7-0.7h0.8c0.4,0,0.7,0.3,0.7,0.7v14.4c0,0.4-0.3,0.7-0.7,0.7
		h-0.8C131.8,39,131.5,38.7,131.5,38.3z M134.9,38.8V23.6c0-0.4,0.3-0.7,0.7-0.7h0.8c0.4,0,0.7,0.3,0.7,0.7v15.3
		c0,0.4-0.3,0.7-0.7,0.7h-0.8C135.2,39.5,134.9,39.2,134.9,38.8z"/>
</g>
<g>
	<g>
		<circle class="st0" cx="19.6" cy="40.2" r="2.6"/>
		<circle class="st0" cx="45.2" cy="40.2" r="2.6"/>
		<path class="st0" d="M57.6,24.8h-0.2h-1.9v-0.3c0-0.6-0.4-1-1-1H49v-1.9c0-0.3-0.3-0.6-0.6-0.6H37.4c0.1-0.4,0.1-0.8,0.1-1.3
			c0-3.5-2.9-6.4-6.4-6.4c-3.5,0-6.4,2.9-6.4,6.4c0,0.4,0.1,0.9,0.1,1.3H13.8c-0.3,0-0.6,0.3-0.6,0.6v1.9h-2.3
			c-0.8,0-1.5,0.7-1.5,1.5v14.1c0,0.6,0.5,1.1,1.1,1.1h5.3c0-2.1,1.7-3.8,3.8-3.8s3.8,1.7,3.8,3.8h17.9c0-2.1,1.7-3.8,3.8-3.8
			c2.1,0,3.8,1.7,3.8,3.8h5.9c0.3,0,0.5-0.2,0.5-0.5V25.5H57c0.2,0,0.3,0.2,0.3,0.3v2.5c0,0.2,0.1,0.3,0.3,0.3s0.3-0.1,0.3-0.3v-2.9
			v-0.2C58,25,57.8,24.8,57.6,24.8z M18.5,30.5c0,0.1-0.1,0.2-0.2,0.1l-4.7-0.9c-0.1,0-0.1-0.1-0.1-0.1v-4.6c0-0.1,0.1-0.1,0.2-0.1
			h4.7c0.1,0,0.2,0.1,0.2,0.1V30.5z M24.6,32.1c0,0.2-0.2,0.3-0.5,0.3l-4.3-0.6c-0.2,0-0.3-0.2-0.3-0.3v-6.4c0-0.2,0.2-0.3,0.4-0.3
			h4.3c0.2,0,0.4,0.1,0.4,0.3V32.1z M31.1,15.9c2.1,0,3.8,1.7,3.8,3.8s-1.7,3.8-3.8,3.8s-3.8-1.7-3.8-3.8S29,15.9,31.1,15.9z
			 M36.2,32.3c0,0.1-0.1,0.2-0.2,0.2h-9.8c-0.1,0-0.2-0.1-0.2-0.2v-7.1c0-0.2,0.1-0.3,0.3-0.3H36c0.1,0,0.3,0.1,0.3,0.3V32.3z
			 M47.8,32.3c0,0.1-0.1,0.2-0.2,0.2h-9.9c-0.1,0-0.1-0.1-0.1-0.1v-7.5c0-0.1,0-0.1,0.1-0.1h10c0.1,0,0.2,0.1,0.2,0.2V32.3z
			 M54.2,32.5h-3.8v-6.4h3.3c0.3,0,0.5,0.2,0.5,0.5V32.5z"/>
		<rect x="40.1" y="5.5" transform="matrix(0.676 -0.7369 0.7369 0.676 8.6518 33.8146)" class="st0" width="5.4" height="3.1"/>
		<path class="st0" d="M36.9,14.8l4.1-4.5L39.6,9l-4.1,4.5C36,13.9,36.5,14.3,36.9,14.8z"/>
	</g>
	<circle class="st0" cx="31.1" cy="19.7" r="1.3"/>
</g>
</svg>
