<?xml version="1.0" encoding="utf-8"?>
<!-- Generator: Adobe Illustrator 21.0.0, SVG Export Plug-In . SVG Version: 6.00 Build 0)  -->
<svg version="1.1" id="Layer_1" xmlns="http://www.w3.org/2000/svg" xmlns:xlink="http://www.w3.org/1999/xlink" x="0px" y="0px"
	 viewBox="0 0 130 43" style="enable-background:new 0 0 130 43;" xml:space="preserve">
<style type="text/css">
	.st0{fill:#E5E5E5;}
	.st1{fill:#1B80BF;}
</style>
<g>
	<g>
		<circle class="st0" cx="19.7" cy="28.5" r="1.3"/>
		<circle class="st0" cx="32.7" cy="28.5" r="1.3"/>
		<path class="st0" d="M39,20.7h-0.1h-1v-0.2c0-0.3-0.2-0.5-0.5-0.5h-2.8v-1c0-0.2-0.2-0.3-0.3-0.3h-5.6c0.1-0.2,0.1-0.4,0.1-0.7
			c0-1.8-1.5-3.3-3.3-3.3s-3.3,1.5-3.3,3.3c0,0.2,0.1,0.5,0.1,0.7h-5.6c-0.2,0-0.3,0.2-0.3,0.3v1h-1.2c-0.4,0-0.8,0.4-0.8,0.8V28
			c0,0.3,0.3,0.6,0.6,0.6h2.7c0-1.1,0.9-1.9,1.9-1.9s1.9,0.9,1.9,1.9h9.1c0-1.1,0.9-1.9,1.9-1.9c1.1,0,1.9,0.9,1.9,1.9h3
			c0.2,0,0.3-0.1,0.3-0.3v-7.2h0.9c0.1,0,0.2,0.1,0.2,0.2v1.3c0,0.1,0.1,0.2,0.2,0.2s0.2-0.1,0.2-0.2V21v-0.1
			C39.2,20.8,39.1,20.7,39,20.7z M19.1,23.6c0,0.1-0.1,0.1-0.1,0.1l-2.4-0.5c-0.1,0-0.1-0.1-0.1-0.1v-2.3c0-0.1,0.1-0.1,0.1-0.1H19
			c0.1,0,0.1,0.1,0.1,0.1L19.1,23.6L19.1,23.6z M22.2,24.4c0,0.1-0.1,0.2-0.3,0.2l-2.2-0.3c-0.1,0-0.2-0.1-0.2-0.2v-3.3
			c0-0.1,0.1-0.2,0.2-0.2H22c0.1,0,0.2,0.1,0.2,0.2V24.4z M25.5,16.2c1.1,0,1.9,0.9,1.9,1.9S26.6,20,25.5,20s-1.9-0.9-1.9-1.9
			S24.4,16.2,25.5,16.2z M28.1,24.5c0,0.1-0.1,0.1-0.1,0.1h-5c-0.1,0-0.1-0.1-0.1-0.1v-3.6c0-0.1,0.1-0.2,0.2-0.2H28
			c0.1,0,0.2,0.1,0.2,0.2L28.1,24.5L28.1,24.5z M34,24.5c0,0.1-0.1,0.1-0.1,0.1h-5c-0.1,0-0.1-0.1-0.1-0.1v-3.8c0-0.1,0-0.1,0.1-0.1
			H34c0.1,0,0.1,0.1,0.1,0.1L34,24.5L34,24.5z M37.3,24.6h-1.9v-3.3H37c0.2,0,0.3,0.1,0.3,0.3V24.6z"/>
		<rect x="30.1" y="10.9" transform="matrix(0.676 -0.7369 0.7369 0.676 1.6134 26.9633)" class="st0" width="2.8" height="1.6"/>
		<path class="st0" d="M28.5,15.6l2.1-2.3l-0.7-0.7l-2.1,2.3C28,15.1,28.3,15.3,28.5,15.6z"/>
	</g>
	<circle class="st0" cx="25.5" cy="18.1" r="0.7"/>
</g>
<path class="st0" d="M58.8,27.9c-1.1-0.6-2-1.3-2.8-2.3c-0.2-0.2-0.5-0.2-0.7,0c-0.3,0.4-0.8,0.9-1.3,1.4c-0.6,0.6-1.2,1-1.8,1.4
	c-0.2,0.1-0.4,0.1-0.5-0.1l-1.2-1.2c1.1-0.5,2-1.1,2.8-2c0.7-1,1.2-1.9,1.2-2.9v-1h-3.2v-1.7h8.5v1.7h-3.2v0.8c0,1,0.4,1.8,1.1,2.6
	c0.6,0.7,1.4,1.2,2.2,1.5c0.3,0.1,0.3,0.4,0.2,0.7l-0.7,0.9C59.2,28,59,28,58.8,27.9z M53.9,33.7v-4.4c0-0.2,0.2-0.4,0.4-0.4h1.2
	c0.2,0,0.4,0.2,0.4,0.4V32c0,0.2,0.2,0.4,0.4,0.4h8.1v1.7H54.3C54.1,34.1,53.9,33.9,53.9,33.7z M62.3,29.6v-4.8
	c0-0.2-0.2-0.4-0.4-0.4h-2.7v-1.7h2.7c0.2,0,0.4-0.2,0.4-0.4v-3.2c0-0.2,0.2-0.4,0.4-0.4h1.2c0.2,0,0.4,0.2,0.4,0.4v10.6
	c0,0.2-0.2,0.4-0.4,0.4h-1.2C62.5,30,62.3,29.8,62.3,29.6z"/>
<path class="st0" d="M78,34.6v-3.3c0-0.2-0.2-0.4-0.4-0.4h-7.7c-0.2,0-0.4-0.2-0.4-0.4v-0.9c0-0.2,0.2-0.4,0.4-0.4h3.9v-1.3h-6.4
	v-1.7h14.8v1.7h-6.4v1.3h3.8c0.2,0,0.4,0.2,0.4,0.4v4.5c0,0.2-0.2,0.4-0.4,0.4H78V34.6z M69.8,24.6v-5.2c0-0.2,0.2-0.4,0.4-0.4h1.6
	v1.4H78V19h1.6c0.2,0,0.4,0.2,0.4,0.4v5.2c0,0.2-0.2,0.4-0.4,0.4h-9.4C70,25,69.8,24.8,69.8,24.6z M78,22.1h-6.1v1.2H78V22.1z"/>
<path class="st0" d="M96.2,34.2v-2.9c0-0.2-0.2-0.4-0.4-0.4h-8.1v-1.7H92v-1.4h-5.9c-0.2,0-0.4-0.2-0.4-0.4v-0.9
	c0-0.2,0.2-0.4,0.4-0.4H100c0.2,0,0.4,0.2,0.4,0.4v0.9c0,0.2-0.2,0.4-0.4,0.4h-5.9v1.4h3.8c0.2,0,0.4,0.2,0.4,0.4v4.5
	c0,0.2-0.2,0.4-0.4,0.4h-1.2C96.4,34.6,96.2,34.4,96.2,34.2z M99.1,25c-0.1,0.1-0.2,0.2-0.4,0.2c-1-0.1-2-0.4-3.1-0.8
	c-1-0.4-1.7-0.8-2.2-1.2c-0.2-0.1-0.4-0.1-0.5,0c-0.5,0.4-1.3,0.9-2.3,1.2c-1.1,0.3-2.1,0.7-3.2,0.8c-0.2,0-0.3-0.1-0.4-0.2
	l-0.8-1.3c1.2,0,2.4-0.1,3.5-0.6s1.8-0.8,2.3-1.4h-4.4v-1.7h4.7v-1.4h2v1.4h4.7v1.7h-4.4c0.4,0.6,1.2,1.1,2.3,1.4
	c1.1,0.4,2.2,0.6,3.4,0.6L99.1,25z"/>
<path class="st0" d="M109.6,30.4c-0.2,0.2-0.4,0.2-0.6,0c-0.4-0.3-0.8-0.7-1.1-1.3c-0.6-0.7-1-1.2-1.2-1.7c-0.2,0.6-0.6,1.2-1.2,2
	c-0.5,0.6-0.9,1.1-1.4,1.5c-0.2,0.1-0.4,0.1-0.5,0l-0.9-0.8c-0.2-0.2-0.2-0.5,0-0.7c0.9-0.7,1.6-1.5,2.1-2.4
	c0.6-1.1,0.8-2.3,0.8-3.6v-1.4c0-0.2-0.2-0.4-0.4-0.4h-2.3v-1.6h7.2v1.7h-2c-0.2,0-0.4,0.2-0.4,0.4v1.5c0,1.1,0.2,2.2,0.8,3.1
	c0.5,0.8,1.1,1.5,1.9,2.1c0.2,0.2,0.2,0.5,0.1,0.6L109.6,30.4z M111.3,33.7V26c0-0.2-0.2-0.4-0.4-0.4h-1.7v-1.7h1.7
	c0.2,0,0.4-0.2,0.4-0.4v-4.1c0-0.2,0.2-0.4,0.4-0.4h1.2c0.2,0,0.4,0.2,0.4,0.4v14.3c0,0.2-0.2,0.4-0.4,0.4h-1.2
	C111.4,34.1,111.3,33.9,111.3,33.7z M114.4,34.2v-15c0-0.2,0.2-0.4,0.4-0.4h1.2c0.2,0,0.4,0.2,0.4,0.4v15c0,0.2-0.2,0.4-0.4,0.4
	h-1.2C114.6,34.6,114.4,34.4,114.4,34.2z"/>
<g>
	<path class="st1" d="M117,13.2c-0.1,0.5-0.3,0.9-0.4,1.3s-0.5,0.7-0.8,0.9c-0.3,0.2-0.7,0.4-1,0.4c-0.4,0.1-0.8,0.1-1.3,0
		c-0.5-0.1-0.8-0.2-1.2-0.4c-0.3-0.1-0.6-0.5-0.7-0.7s-0.3-0.7-0.3-1c0-0.4,0-0.9,0.1-1.4c0.1-0.5,0.3-0.9,0.4-1.3
		c0.2-0.4,0.5-0.7,0.8-0.9c0.3-0.2,0.7-0.4,1-0.4c0.4-0.1,0.8-0.1,1.3,0c0.4,0.1,0.8,0.2,1.1,0.4c0.3,0.1,0.6,0.5,0.7,0.7
		c0.1,0.3,0.3,0.7,0.3,1S117.1,12.7,117,13.2z M115.8,13.1c0.1-0.3,0.1-0.6,0.1-0.8s-0.1-0.5-0.1-0.7c-0.1-0.2-0.2-0.4-0.4-0.5
		c-0.1-0.1-0.4-0.2-0.7-0.3c-0.3-0.1-0.6,0-0.8,0c-0.2,0.1-0.4,0.2-0.6,0.3c-0.1,0.1-0.3,0.4-0.4,0.6c-0.1,0.2-0.2,0.5-0.2,0.8
		s-0.1,0.6-0.1,0.9c0,0.3,0.1,0.5,0.1,0.7c0.1,0.2,0.2,0.4,0.4,0.5c0.1,0.1,0.4,0.2,0.7,0.3s0.6,0,0.8,0s0.4-0.2,0.6-0.3
		c0.1-0.1,0.3-0.4,0.4-0.6C115.7,13.5,115.7,13.3,115.8,13.1z"/>
	<path class="st1" d="M121.4,17C121.4,17,121.4,17,121.4,17c-0.1,0.1-0.1,0.1-0.1,0.1c0,0.1-0.1,0-0.2,0s-0.2,0-0.2,0
		c-0.1,0-0.2,0-0.2,0c-0.1,0-0.2,0-0.2,0c-0.1,0-0.1,0-0.1-0.1l0-0.1l0.4-2.3c0-0.2,0.1-0.3,0-0.5c0-0.1,0-0.3-0.1-0.4
		c-0.1-0.1-0.1-0.2-0.2-0.2c-0.1-0.1-0.1-0.1-0.3-0.1c-0.2,0-0.3,0-0.4,0.1c-0.1,0.1-0.4,0.2-0.6,0.4l-0.5,2.7l0,0.1l-0.1,0.1
		c-0.1,0-0.1,0-0.2,0c-0.1,0-0.2,0-0.2,0c-0.1,0-0.2,0-0.2,0c-0.1,0-0.2,0-0.2,0s-0.1,0-0.1-0.1l0-0.1l0.8-4.1l0-0.1l0.1-0.1
		c0,0,0.1,0,0.2,0c0.1,0,0.2,0,0.2,0c0.1,0,0.2,0,0.2,0c0.1,0,0.1,0,0.2,0c0,0,0.1,0,0.1,0.1l0,0.1l-0.1,0.5
		c0.3-0.2,0.5-0.3,0.8-0.5c0.3-0.1,0.5-0.1,0.8,0c0.2,0,0.5,0.2,0.6,0.3c0.1,0.1,0.3,0.3,0.4,0.5c0.1,0.2,0.1,0.4,0.1,0.6
		c0,0.3,0,0.5-0.1,0.8l-0.5,2.4L121.4,17z"/>
	<path class="st1" d="M124.4,17.1c0,0.2,0,0.2-0.1,0.3c0,0.1-0.1,0.1-0.1,0.1c-0.1,0.1-0.1,0.1-0.2,0.1c-0.1,0-0.2,0-0.3-0.1
		c-0.2,0-0.2,0-0.3-0.1c-0.1,0-0.1-0.1-0.1-0.1c-0.1-0.1-0.1-0.1-0.1-0.2c0-0.1,0-0.2,0.1-0.3c0-0.2,0-0.2,0.1-0.3
		c0-0.1,0.1-0.1,0.1-0.2c0-0.1,0.1-0.1,0.2-0.1c0.1,0,0.2,0,0.3,0.1c0.2,0,0.2,0,0.3,0.1c0.1,0,0.1,0.1,0.1,0.1
		c0.1,0.1,0.1,0.1,0,0.3C124.3,16.8,124.4,17,124.4,17.1z M124.4,15.8C124.4,15.8,124.4,15.8,124.4,15.8c-0.1,0.1-0.1,0.1-0.1,0.1
		s-0.1,0-0.2,0c-0.1,0-0.2,0-0.2,0c-0.1,0-0.2,0-0.2,0c-0.1,0-0.1,0-0.2,0c0,0-0.1,0-0.1-0.1l0-0.1l0.7-4.2l0-0.1l0.1-0.1
		c0.1,0,0.1,0,0.2-0.1c0.1,0,0.2,0,0.3,0.1s0.2,0,0.3,0.1c0.1,0,0.2,0,0.1,0.1c0.1,0,0.1,0.1,0.1,0.1l0,0.1L124.4,15.8z"/>
</g>
<path class="st0" d="M12.7,32.4c9.1,0,18.1,0,27.2,0c0.7,0,2-1.1,0.7-1.1c-9.1,0-18.1,0-27.2,0C12.7,31.4,11.4,32.4,12.7,32.4
	L12.7,32.4z"/>
<path class="st0" d="M11.1,34.2c9,0,18.1,0,27.1,0c0.7,0,2-1.1,0.7-1.1c-9,0-18.1,0-27.1,0C11.1,33.1,9.8,34.2,11.1,34.2L11.1,34.2z
	"/>
</svg>
