<?xml version="1.0" encoding="utf-8"?>
<!-- Generator: Adobe Illustrator 21.0.0, SVG Export Plug-In . SVG Version: 6.00 Build 0)  -->
<svg version="1.1" id="Layer_1" xmlns="http://www.w3.org/2000/svg" xmlns:xlink="http://www.w3.org/1999/xlink" x="0px" y="0px"
	 viewBox="0 0 130 43" style="enable-background:new 0 0 130 43;" xml:space="preserve">
<style type="text/css">
	.st0{fill:#E5E5E5;}
	.st1{fill:#E8E8E8;}
</style>
<g>
	<g>
		<circle class="st0" cx="14.6" cy="39.2" r="2.6"/>
		<circle class="st0" cx="40.2" cy="39.2" r="2.6"/>
		<path class="st0" d="M52.6,23.8h-0.2h-1.9v-0.3c0-0.6-0.4-1-1-1H44v-1.9c0-0.3-0.3-0.6-0.6-0.6H32.4c0.1-0.4,0.1-0.8,0.1-1.3
			c0-3.5-2.9-6.4-6.4-6.4c-3.5,0-6.4,2.9-6.4,6.4c0,0.4,0.1,0.9,0.1,1.3H8.8c-0.3,0-0.6,0.3-0.6,0.6v1.9H5.8c-0.8,0-1.5,0.7-1.5,1.5
			v14.1c0,0.6,0.5,1.1,1.1,1.1h5.3c0-2.1,1.7-3.8,3.8-3.8s3.8,1.7,3.8,3.8h17.9c0-2.1,1.7-3.8,3.8-3.8c2.1,0,3.8,1.7,3.8,3.8h5.9
			c0.3,0,0.5-0.2,0.5-0.5V24.5H52c0.2,0,0.3,0.2,0.3,0.3v2.5c0,0.2,0.1,0.3,0.3,0.3s0.3-0.1,0.3-0.3v-2.9v-0.2
			C53,24,52.8,23.8,52.6,23.8z M13.5,29.5c0,0.1-0.1,0.2-0.2,0.1l-4.7-0.9c-0.1,0-0.1-0.1-0.1-0.1v-4.6c0-0.1,0.1-0.1,0.2-0.1h4.7
			c0.1,0,0.2,0.1,0.2,0.1V29.5z M19.6,31.1c0,0.2-0.2,0.3-0.5,0.3l-4.3-0.6c-0.2,0-0.3-0.2-0.3-0.3v-6.4c0-0.2,0.2-0.3,0.4-0.3h4.3
			c0.2,0,0.4,0.1,0.4,0.3V31.1z M26.1,14.9c2.1,0,3.8,1.7,3.8,3.8s-1.7,3.8-3.8,3.8s-3.8-1.7-3.8-3.8S24,14.9,26.1,14.9z M31.2,31.3
			c0,0.1-0.1,0.2-0.2,0.2h-9.8c-0.1,0-0.2-0.1-0.2-0.2v-7.1c0-0.2,0.1-0.3,0.3-0.3H31c0.1,0,0.3,0.1,0.3,0.3V31.3z M42.8,31.3
			c0,0.1-0.1,0.2-0.2,0.2h-9.9c-0.1,0-0.1-0.1-0.1-0.1v-7.5c0-0.1,0-0.1,0.1-0.1h10c0.1,0,0.2,0.1,0.2,0.2V31.3z M49.2,31.5h-3.8
			v-6.4h3.3c0.3,0,0.5,0.2,0.5,0.5V31.5z"/>
		<rect x="35.1" y="4.5" transform="matrix(0.676 -0.7369 0.7369 0.676 7.7687 29.8061)" class="st0" width="5.4" height="3.1"/>
		<path class="st0" d="M31.9,13.8L36,9.3L34.6,8l-4.1,4.5C31,12.9,31.5,13.3,31.9,13.8z"/>
	</g>
	<circle class="st0" cx="26.1" cy="18.7" r="1.3"/>
</g>
<g>
	<path class="st0" d="M70.8,31.7c-1.2-0.6-2.2-1.4-2.9-2.5c-0.2,0.5-0.7,1-1.3,1.6c-0.6,0.6-1.2,1-1.7,1.3l-1.2-1.2
		c0.9-0.4,1.7-0.9,2.3-1.7s1-1.6,1-2.4v-0.8h-2.7v-1.4h7.1v1.4h-2.7v0.7c0,0.8,0.3,1.5,0.9,2.2c0.6,0.7,1.4,1.1,2.3,1.4L70.8,31.7z
		 M66.4,36.7v-4.4h1.7v3h7.1v1.4H66.4z M73.4,33.3v-4.7h-2.6v-1.4h2.6v-3.4h1.7v9.5H73.4z"/>
	<path class="st0" d="M86.5,37.1V34h-7.1v-1.5h3.6v-1.1h-5.3V30h12.3v1.4h-5.3v1.1h3.5v4.5H86.5z M79.7,29.1v-5h1.7v1.2h5.1v-1.2
		h1.7v5H79.7z M86.5,26.7h-5.1v1h5.1V26.7z"/>
	<path class="st0" d="M105.5,37.1V34h-7.1v-1.4h3.6v-1.2h-5.3v-1.5h12.3v1.5h-5.3v1.2h3.5v4.5H105.5z M107.8,29.3
		c-0.9-0.1-1.8-0.3-2.8-0.7s-1.6-0.8-2.1-1.2c-0.4,0.4-1.1,0.9-2.1,1.2s-1.9,0.6-2.9,0.7L97.1,28c1,0,2-0.1,2.9-0.5s1.5-0.7,1.9-1.2
		h-3.7v-1.4h3.9v-1.2h1.7v1.2h3.9v1.4H104c0.3,0.5,1,0.9,1.9,1.2c0.9,0.3,1.8,0.5,2.8,0.5L107.8,29.3z"/>
	<path class="st0" d="M116.4,33.8c-0.4-0.3-0.8-0.7-1.2-1.3c-0.5-0.6-0.8-1-1-1.4c-0.2,0.5-0.5,1-1,1.7c-0.5,0.6-0.9,1.1-1.4,1.4
		l-1.3-1.1c0.9-0.6,1.6-1.4,2.1-2.3s0.7-1.9,0.7-3v-1.5h-2.3V25h6v1.4h-2V28c0,0.9,0.2,1.8,0.7,2.6s1.1,1.5,1.9,2L116.4,33.8z
		 M118,36.7v-7.1h-1.8v-1.4h1.8v-4.1h1.7v12.6H118z M120.6,37.1V23.9h1.7v13.2H120.6z"/>
</g>
<g>
	<path class="st1" d="M112.7,16.6c0,0.6-0.1,1.1-0.2,1.6c-0.1,0.5-0.4,0.9-0.7,1.2s-0.7,0.6-1.1,0.7c-0.4,0.2-0.9,0.3-1.5,0.3
		c-0.6,0-1-0.1-1.5-0.2c-0.4-0.1-0.8-0.4-1-0.7s-0.5-0.7-0.6-1.1c-0.1-0.5-0.2-1-0.2-1.6c0-0.6,0.1-1.1,0.2-1.6
		c0.1-0.5,0.4-0.9,0.7-1.2c0.3-0.3,0.7-0.6,1.1-0.7c0.4-0.2,0.9-0.3,1.5-0.3c0.5,0,1,0.1,1.4,0.2c0.4,0.1,0.8,0.4,1,0.7
		s0.5,0.7,0.6,1.1S112.7,16,112.7,16.6z M111.2,16.7c0-0.4,0-0.7-0.1-1c-0.1-0.3-0.2-0.6-0.3-0.8c-0.1-0.2-0.3-0.4-0.6-0.5
		c-0.2-0.1-0.5-0.2-0.9-0.2c-0.4,0-0.7,0.1-0.9,0.2c-0.2,0.1-0.4,0.3-0.6,0.5c-0.1,0.2-0.3,0.5-0.3,0.8c-0.1,0.3-0.1,0.6-0.1,1
		c0,0.4,0,0.7,0.1,1.1c0.1,0.3,0.2,0.6,0.3,0.8c0.1,0.2,0.3,0.4,0.6,0.5c0.2,0.1,0.5,0.2,0.9,0.2s0.7-0.1,0.9-0.2s0.4-0.3,0.6-0.5
		c0.1-0.2,0.3-0.5,0.3-0.8C111.2,17.3,111.2,17,111.2,16.7z"/>
	<path class="st1" d="M118.6,20C118.6,20.1,118.6,20.1,118.6,20c-0.1,0.1-0.1,0.1-0.1,0.2s-0.1,0-0.2,0c-0.1,0-0.2,0-0.3,0
		c-0.1,0-0.2,0-0.3,0c-0.1,0-0.2,0-0.2,0c-0.1,0-0.1,0-0.1-0.1c0,0,0-0.1,0-0.1v-2.8c0-0.2,0-0.4-0.1-0.6c0-0.1-0.1-0.3-0.2-0.4
		s-0.2-0.2-0.3-0.2c-0.1-0.1-0.2-0.1-0.4-0.1c-0.2,0-0.4,0.1-0.5,0.2s-0.4,0.3-0.6,0.6V20c0,0,0,0.1,0,0.1c0,0-0.1,0.1-0.1,0.1
		c-0.1,0-0.1,0-0.2,0c-0.1,0-0.2,0-0.3,0c-0.1,0-0.2,0-0.3,0c-0.1,0-0.2,0-0.2,0s-0.1,0-0.1-0.1c0,0,0-0.1,0-0.1v-4.9
		c0,0,0-0.1,0-0.1c0,0,0.1-0.1,0.1-0.1s0.1,0,0.2,0s0.2,0,0.3,0c0.1,0,0.2,0,0.3,0c0.1,0,0.1,0,0.2,0c0,0,0.1,0,0.1,0.1
		c0,0,0,0.1,0,0.1v0.6c0.3-0.3,0.5-0.5,0.8-0.7s0.6-0.2,0.9-0.2c0.3,0,0.6,0.1,0.8,0.2c0.2,0.1,0.4,0.3,0.6,0.5
		c0.1,0.2,0.2,0.4,0.3,0.7s0.1,0.6,0.1,0.9V20z"/>
	<path class="st1" d="M122.1,19.5c0,0.2,0,0.3,0,0.4c0,0.1-0.1,0.2-0.1,0.2c-0.1,0.1-0.1,0.1-0.2,0.1s-0.2,0-0.4,0s-0.3,0-0.4,0
		s-0.2-0.1-0.2-0.1c-0.1-0.1-0.1-0.1-0.1-0.2c0-0.1,0-0.2,0-0.4c0-0.2,0-0.3,0-0.4c0-0.1,0.1-0.2,0.1-0.3s0.1-0.1,0.2-0.1
		s0.2,0,0.4,0s0.3,0,0.4,0s0.2,0.1,0.2,0.1c0.1,0.1,0.1,0.1,0.1,0.3C122,19.2,122.1,19.4,122.1,19.5z M121.9,17.9
		C121.9,17.9,121.9,18,121.9,17.9c-0.1,0.1-0.1,0.2-0.1,0.2c0,0-0.1,0-0.2,0c-0.1,0-0.2,0-0.3,0c-0.1,0-0.2,0-0.3,0
		c-0.1,0-0.1,0-0.2,0c0,0-0.1,0-0.1-0.1c0,0,0-0.1,0-0.1l-0.1-5c0,0,0-0.1,0-0.1c0,0,0.1-0.1,0.1-0.1c0.1,0,0.1,0,0.2-0.1
		c0.1,0,0.2,0,0.4,0s0.3,0,0.4,0c0.1,0,0.2,0,0.2,0.1c0.1,0,0.1,0.1,0.1,0.1c0,0,0,0.1,0,0.1L121.9,17.9z"/>
</g>
</svg>
